<svg xmlns="http://www.w3.org/2000/svg" width="295.000000pt" height="306.000000pt" viewBox="0 0 295.000000 306.000000" preserveAspectRatio="xMidYMid meet"><g transform="translate(0.000000,306.000000) scale(0.100000,-0.100000)" fill="#000000" stroke="none"><path d="M1560 2955 c0 -2 50 -68 110 -145 61 -76 110 -144 110 -149 0 -5 4 -11 10 -13 12 -4 239 -291 234 -297 -1 -1 -238 -62 -525 -135 l-522 -131 -78 -175 c-43 -96 -78 -179 -78 -185 0 -11 698 -415 716 -415 6 0 13 6 16 14 6 16 165 242 212 301 23 30 60 123 146 373 62 182 116 332 119 332 3 0 29 -64 57 -143 29 -78 80 -214 113 -302 l59 -160 0 415 1 415 -302 175 c-166 96 -324 187 -350 203 -26 15 -48 25 -48 22z m-550 -895 c0 -5 -2 -10 -4 -10 -3 0 -8 5 -11 10 -3 6 -1 10 4 10 6 0 11 -4 11 -10z m70 -36 c0 -2 -13 2 -30 11 -16 9 -30 18 -30 21 0 2 14 -2 30 -11 17 -9 30 -18 30 -21z m-40 -14 c12 -16 19 -30 16 -30 -2 0 -14 14 -26 30 -12 17 -19 30 -16 30 2 0 14 -13 26 -30z m50 -70 c12 -16 19 -30 16 -30 -2 0 -14 14 -26 30 -12 17 -19 30 -16 30 2 0 14 -13 26 -30z m180 -15 c0 -3 -18 4 -40 15 -22 11 -40 23 -40 25 0 3 18 -4 40 -15 22 -11 40 -23 40 -25z m-130 -55 c12 -16 19 -30 16 -30 -2 0 -14 14 -26 30 -12 17 -19 30 -16 30 2 0 14 -13 26 -30z m280 -26 c0 -2 -9 0 -20 6 -11 6 -20 13 -20 16 0 2 9 0 20 -6 11 -6 20 -13 20 -16z m-230 -44 c12 -16 19 -30 16 -30 -2 0 -14 14 -26 30 -12 17 -19 30 -16 30 2 0 14 -13 26 -30z m420 -55 c0 -3 -18 4 -40 15 -22 11 -40 23 -40 25 0 3 18 -4 40 -15 22 -11 40 -23 40 -25z m-370 -15 c12 -16 19 -30 16 -30 -2 0 -14 14 -26 30 -12 17 -19 30 -16 30 2 0 14 -13 26 -30z m540 -75 c0 -3 -18 4 -40 15 -22 11 -40 23 -40 25 0 3 18 -4 40 -15 22 -11 40 -23 40 -25z m-490 5 c12 -16 19 -30 16 -30 -2 0 -14 14 -26 30 -12 17 -19 30 -16 30 2 0 14 -13 26 -30z m61 -87 c13 -16 12 -17 -3 -4 -10 7 -18 15 -18 17 0 8 8 3 21 -13z m50 -70 c13 -16 12 -17 -3 -4 -10 7 -18 15 -18 17 0 8 8 3 21 -13z m50 -70 c13 -16 12 -17 -3 -4 -10 7 -18 15 -18 17 0 8 8 3 21 -13z m50 -70 c13 -16 12 -17 -3 -4 -10 7 -18 15 -18 17 0 8 8 3 21 -13z"></path><path d="M240 765 l0 -276 43 3 42 3 0 270 0 270 -42 3 -43 3 0 -276z m70 209 c0 -19 -4 -33 -9 -30 -5 3 -7 15 -4 26 4 15 2 19 -10 14 -8 -3 -18 0 -23 7 -4 8 -3 10 4 5 7 -4 12 -2 12 3 0 6 7 11 15 11 11 0 15 -11 15 -36z m-20 -324 c0 -5 -4 -10 -10 -10 -5 0 -10 5 -10 10 0 6 5 10 10 10 6 0 10 -4 10 -10z m-5 -42 c-3 -12 1 -26 8 -30 8 -5 4 -8 -10 -8 -19 0 -23 6 -23 30 0 19 5 30 14 30 10 0 13 -8 11 -22z m1 -63 c-10 -8 -23 -12 -28 -9 -14 9 2 24 25 24 21 -1 21 -1 3 -15z"></path><path d="M562 768 l3 -273 40 0 40 0 3 168 c1 92 6 167 10 167 4 0 84 -76 177 -170 93 -94 173 -170 177 -170 5 0 8 124 8 275 l0 275 -45 0 -45 0 0 -170 c0 -93 -4 -170 -8 -170 -4 0 -81 77 -171 170 -89 94 -169 170 -177 170 -12 0 -14 -41 -12 -272z m443 250 c8 -20 -19 -111 -33 -114 -7 -1 -8 0 -2 3 6 3 4 15 -5 33 -20 40 -19 77 3 83 29 8 32 7 37 -5z m-245 -188 c0 -5 -4 -10 -10 -10 -5 0 -10 5 -10 10 0 6 5 10 10 10 6 0 10 -4 10 -10z m80 -112 c0 -6 -7 -5 -15 2 -8 7 -15 17 -15 22 0 6 7 5 15 -2 8 -7 15 -17 15 -22z m-222 -16 c2 -7 -5 -12 -15 -13 -15 0 -14 -2 5 -9 25 -10 28 -20 10 -38 -17 -17 -31 -15 -25 3 4 8 2 17 -3 20 -6 4 -10 17 -10 30 0 16 5 22 17 21 9 -2 19 -8 21 -14z m9 -101 c1 -12 -7 -21 -20 -25 -29 -7 -32 -2 -10 23 22 26 28 26 30 2z"></path><path d="M1192 998 l3 -41 75 2 c41 1 81 -2 87 -7 9 -6 13 -68 15 -232 l3 -225 43 -3 42 -3 0 225 c0 262 -5 250 108 244 l67 -3 3 43 3 42 -226 0 -226 0 3 -42z m428 10 c0 -5 -6 -6 -12 -2 -10 6 -10 4 0 -8 9 -11 10 -18 2 -23 -5 -3 -10 -1 -10 6 0 7 -3 9 -7 6 -3 -4 -16 -1 -28 7 -11 7 -30 16 -40 19 -11 2 6 5 38 5 31 -1 57 -5 57 -10z m-70 -18 c0 -5 -4 -10 -9 -10 -6 0 -13 5 -16 10 -3 6 1 10 9 10 9 0 16 -4 16 -10z m-125 -401 c-4 -5 -1 -9 4 -9 15 0 14 -57 -1 -66 -6 -4 -14 -2 -16 4 -2 7 -8 10 -13 6 -13 -7 -11 20 2 33 8 8 8 13 0 17 -17 11 -13 22 9 23 11 1 18 -2 15 -8z"></path><path d="M1918 968 c-18 -40 -74 -161 -124 -268 -50 -107 -89 -198 -87 -202 2 -5 22 -8 44 -8 39 0 41 2 64 55 l25 55 120 0 120 0 23 -47 c12 -27 27 -51 32 -55 14 -11 73 -10 79 1 8 13 -236 540 -251 541 -6 0 -26 -33 -45 -72z m76 -21 c1 -8 7 -21 12 -28 23 -29 32 -74 18 -87 -11 -10 -16 -7 -28 17 -19 36 -27 81 -20 104 6 20 14 17 18 -6z m11 -171 c20 -46 34 -89 31 -95 -9 -14 -143 -15 -151 -1 -6 10 64 180 75 180 4 0 24 -38 45 -84z m-120 -3 c-1 -16 -12 -44 -23 -63 -12 -19 -22 -41 -22 -48 0 -10 -4 -10 -20 0 -19 12 -19 13 0 46 11 18 20 40 20 48 0 8 7 17 15 20 8 4 12 10 9 15 -3 5 1 9 9 9 10 0 14 -9 12 -27z m-61 -131 c3 -5 -1 -9 -9 -9 -8 0 -15 4 -15 9 0 4 4 8 9 8 6 0 12 -4 15 -8z"></path><path d="M2346 1028 c4 -7 48 -71 97 -142 76 -110 88 -132 78 -148 -6 -10 -49 -67 -96 -128 -47 -61 -85 -113 -85 -116 0 -3 24 -4 52 -2 l53 3 67 90 c37 50 72 90 78 90 6 0 41 -40 78 -90 l67 -90 53 -3 c28 -2 52 -1 52 3 0 3 -43 64 -96 135 -61 83 -93 134 -88 142 4 7 45 66 91 130 46 64 83 122 83 127 0 6 -20 11 -45 11 l-44 0 -68 -100 c-38 -54 -74 -99 -80 -100 -7 0 -43 45 -79 100 l-67 100 -54 0 c-41 0 -52 -3 -47 -12z m454 -18 c0 -13 -42 -50 -51 -45 -12 8 -11 29 2 42 12 12 49 14 49 3z m-360 -20 c0 -5 -5 -10 -11 -10 -5 0 -7 5 -4 10 3 6 8 10 11 10 2 0 4 -4 4 -10z m238 -125 c-3 -3 -9 2 -12 12 -6 14 -5 15 5 6 7 -7 10 -15 7 -18z m-16 -33 c-7 -2 -9 -9 -6 -15 5 -9 4 -9 -6 0 -15 13 -4 37 13 26 8 -5 8 -8 -1 -11z m-55 -74 c-3 -8 -6 -5 -6 6 -1 11 2 17 5 13 3 -3 4 -12 1 -19z m117 -194 c3 -8 2 -12 -4 -9 -6 3 -10 10 -10 16 0 14 7 11 14 -7z m-309 -25 c-4 -6 2 -5 13 2 27 17 43 2 18 -17 -23 -16 -26 -17 -45 -5 -14 9 -7 31 10 31 6 0 7 -5 4 -11z m345 -9 c0 -5 -5 -10 -11 -10 -5 0 -7 5 -4 10 3 6 8 10 11 10 2 0 4 -4 4 -10z"></path><path d="M343 310 c21 -14 22 -44 1 -64 -8 -9 -11 -16 -4 -16 6 0 16 12 22 26 13 28 3 55 -23 61 -8 3 -7 0 4 -7z"></path><path d="M273 278 c-32 -35 -58 -77 -50 -84 2 -3 10 9 17 26 7 16 28 44 47 60 18 17 30 30 25 30 -4 0 -22 -15 -39 -32z"></path><path d="M1561 232 c-8 -18 -23 -32 -43 -38 -17 -5 -47 -29 -67 -53 -20 -25 -30 -41 -23 -37 7 4 19 2 27 -4 26 -22 67 15 97 88 15 36 26 67 24 69 -2 2 -9 -9 -15 -25z m-21 -48 c0 -15 -42 -72 -56 -78 -18 -7 -34 0 -34 15 0 16 57 69 74 69 9 0 16 -3 16 -6z"></path><path d="M771 205 c-31 -62 -71 -100 -110 -103 -35 -3 -40 11 -13 42 9 11 -1 5 -24 -14 -22 -19 -39 -37 -38 -39 2 -2 10 2 18 8 10 8 16 9 21 1 3 -5 19 -10 34 -10 35 0 101 59 125 113 25 55 14 56 -13 2z"></path><path d="M1828 200 c-14 -27 -21 -47 -14 -44 11 4 50 83 44 90 -2 2 -16 -19 -30 -46z"></path><path d="M415 190 c-4 -6 -4 -14 -1 -17 3 -4 6 -1 6 5 0 7 5 12 11 12 7 0 9 -11 6 -26 -3 -16 -1 -22 5 -16 12 12 7 44 -9 49 -6 2 -14 -1 -18 -7z"></path><path d="M562 178 c-21 -22 -22 -22 -23 -3 -1 13 -4 9 -9 -10 -4 -16 -11 -39 -15 -50 -4 -11 2 -6 13 10 10 17 29 39 41 50 19 16 24 17 32 5 9 -13 10 -13 7 -1 -7 23 -22 23 -46 -1z"></path><path d="M677 193 c-4 -3 -7 -11 -7 -17 0 -6 5 -5 12 2 6 6 9 14 7 17 -3 3 -9 2 -12 -2z"></path><path d="M822 150 c-48 -55 -61 -61 -63 -27 -1 18 -2 19 -6 3 -3 -10 0 -23 6 -29 9 -9 25 2 63 41 28 29 49 55 46 57 -2 2 -23 -18 -46 -45z"></path><path d="M1056 148 c-38 -42 -49 -49 -56 -38 -8 13 -10 12 -10 -2 0 -30 21 -20 67 30 24 26 49 46 54 44 6 -1 8 2 4 8 -9 14 -7 15 -59 -42z"></path><path d="M1228 183 c-8 -10 -22 -31 -32 -47 -13 -21 -20 -25 -26 -16 -5 8 -2 19 6 27 8 8 14 20 14 26 0 7 -3 7 -8 2 -4 -6 -21 -26 -37 -45 -19 -21 -21 -28 -7 -16 40 34 25 -5 -20 -54 -25 -25 -29 -32 -10 -16 17 17 32 26 32 22 0 -4 12 7 27 24 22 27 28 29 35 16 15 -27 39 -18 90 34 27 28 46 50 42 50 -4 0 -25 -20 -48 -45 -45 -48 -76 -58 -76 -25 0 11 5 20 11 20 5 0 7 5 4 10 -9 14 13 40 33 40 13 0 12 -3 -3 -20 -21 -24 -14 -27 9 -4 17 17 13 34 -8 34 -7 0 -20 -8 -28 -17z"></path><path d="M1405 190 c3 -5 8 -10 11 -10 2 0 4 5 4 10 0 6 -5 10 -11 10 -5 0 -7 -4 -4 -10z"></path><path d="M1635 191 c-3 -7 0 -8 9 -5 19 7 21 -9 4 -39 l-12 -22 -8 25 c-7 21 -7 20 -3 -7 4 -32 -14 -50 -38 -37 -9 5 -9 4 -1 -5 10 -10 17 -10 35 0 13 7 26 13 29 12 3 -1 7 6 7 15 1 9 4 28 5 41 3 25 -15 40 -27 22z"></path><path d="M2213 185 c-13 -9 -23 -11 -25 -5 -2 6 -11 -11 -20 -37 -15 -45 -15 -46 0 -23 28 41 61 71 72 65 6 -3 10 -1 10 4 0 15 -12 14 -37 -4z"></path><path d="M2309 183 c-26 -33 -62 -88 -49 -76 11 10 16 9 26 -5 12 -16 15 -16 43 0 25 14 30 14 35 2 3 -8 11 -14 18 -13 10 0 10 2 1 6 -36 14 15 88 65 96 l27 4 -26 2 c-20 1 -40 -12 -77 -49 -53 -53 -82 -63 -82 -30 0 11 5 20 11 20 5 0 7 5 4 10 -9 14 13 40 33 40 13 0 12 -3 -3 -20 -21 -24 -14 -27 9 -4 17 17 13 34 -8 34 -7 0 -19 -8 -27 -17z"></path><path d="M2525 190 c-4 -6 -4 -14 -1 -17 3 -4 6 -1 6 5 0 17 18 15 23 -3 4 -12 5 -11 3 1 -1 21 -21 29 -31 14z"></path><path d="M2749 158 c-33 -47 -59 -67 -59 -47 0 7 -3 10 -6 6 -3 -3 -3 -11 1 -17 5 -8 14 -7 30 4 18 12 25 12 28 3 3 -6 6 0 6 14 1 15 10 38 22 53 11 14 18 26 15 26 -3 0 -20 -19 -37 -42z"></path><path d="M2802 188 c-7 -7 -12 -16 -12 -22 0 -5 7 -1 15 10 12 16 14 17 15 2 0 -27 -11 -48 -24 -41 -6 3 -8 3 -4 -2 4 -4 2 -15 -4 -24 -10 -13 -10 -14 1 -4 7 6 19 9 26 7 7 -3 16 -1 20 5 3 7 0 8 -9 5 -13 -5 -13 -1 -3 25 13 35 0 60 -21 39z"></path><path d="M379 173 c-13 -16 -12 -17 4 -4 9 7 17 15 17 17 0 8 -8 3 -21 -13z"></path><path d="M480 155 c-22 -22 -40 -33 -51 -30 -10 4 -19 -1 -23 -12 -6 -14 -4 -15 5 -6 6 6 17 9 23 7 6 -2 29 14 51 36 21 22 37 40 34 40 -3 0 -20 -16 -39 -35z"></path><path d="M916 143 c-26 -30 -44 -42 -55 -38 -13 5 -13 4 -4 -6 10 -10 19 -7 43 16 20 19 30 24 30 14 1 -8 7 1 16 20 8 19 13 35 12 37 -2 1 -20 -18 -42 -43z"></path><path d="M986 144 c-26 -31 -43 -43 -55 -39 -12 5 -13 3 -5 -5 13 -13 54 3 54 20 0 6 6 10 13 10 7 0 18 14 24 30 6 17 11 30 10 30 -1 -1 -19 -21 -41 -46z"></path><path d="M1356 173 c2 -7 0 -13 -4 -13 -4 0 -13 -15 -19 -32 -9 -26 -9 -29 0 -14 7 10 23 33 37 50 14 17 17 25 8 18 -9 -7 -18 -9 -20 -5 -3 4 -3 2 -2 -4z"></path><path d="M1589 164 c-7 -14 -26 -37 -42 -50 -16 -13 -25 -24 -20 -24 20 1 105 100 85 100 -5 0 -15 -12 -23 -26z"></path><path d="M1876 145 c-41 -50 -55 -56 -57 -22 -1 18 -2 19 -6 3 -10 -36 15 -42 48 -10 28 26 31 27 25 7 -4 -12 -2 -24 4 -28 13 -8 71 39 89 74 8 16 -5 6 -32 -24 -50 -56 -66 -56 -42 0 8 21 14 40 12 41 -2 2 -20 -17 -41 -41z"></path><path d="M2143 178 c-17 -23 -25 -44 -9 -24 9 11 22 23 28 28 9 5 9 8 2 8 -6 0 -16 -6 -21 -12z"></path><path d="M2489 173 c-13 -16 -12 -17 4 -4 9 7 17 15 17 17 0 8 -8 3 -21 -13z"></path><path d="M2585 155 c-19 -25 -32 -34 -45 -30 -11 3 -20 0 -24 -10 -4 -11 -2 -14 7 -8 6 4 17 8 22 9 6 0 15 2 22 2 10 2 58 72 49 72 -2 0 -16 -16 -31 -35z"></path><path d="M2670 143 c-25 -26 -36 -40 -25 -32 11 7 24 20 29 28 6 9 10 10 15 2 4 -6 12 2 18 19 6 17 10 30 9 30 -1 0 -22 -21 -46 -47z"></path><path d="M211 157 c-1 -33 15 -67 32 -67 8 0 8 3 -2 9 -8 5 -17 26 -21 47 -6 33 -8 34 -9 11z"></path><path d="M877 161 c-4 -17 -3 -21 5 -13 5 5 8 16 6 23 -3 8 -7 3 -11 -10z"></path><path d="M1406 155 c-9 -26 -7 -32 5 -12 6 10 9 21 6 23 -2 3 -7 -2 -11 -11z"></path><path d="M2236 155 c-9 -26 -7 -32 5 -12 6 10 9 21 6 23 -2 3 -7 -2 -11 -11z"></path><path d="M586 145 c-9 -26 -7 -32 5 -12 6 10 9 21 6 23 -2 3 -7 -2 -11 -11z"></path><path d="M2424 133 c-22 -33 -26 -53 -12 -53 6 0 7 7 4 16 -3 8 -2 12 4 9 12 -7 60 23 60 38 0 5 -10 2 -21 -9 -21 -19 -22 -19 -15 4 10 30 2 28 -20 -5z"></path><path d="M339 123 c-13 -15 -16 -21 -6 -13 17 12 20 12 28 -3 6 -9 15 -17 20 -17 6 0 4 7 -5 15 -8 9 -13 22 -10 30 9 22 0 18 -27 -12z"></path><path d="M681 134 c0 -11 3 -14 6 -6 3 7 2 16 -1 19 -3 4 -6 -2 -5 -13z"></path><path d="M1991 122 c-19 -20 -25 -22 -32 -11 -7 11 -9 10 -9 -3 0 -10 4 -18 9 -18 13 0 68 47 61 52 -3 2 -16 -7 -29 -20z"></path><path d="M1390 111 c0 -6 4 -13 10 -16 6 -3 7 1 4 9 -7 18 -14 21 -14 7z"></path><path d="M2220 111 c0 -6 4 -13 10 -16 6 -3 7 1 4 9 -7 18 -14 21 -14 7z"></path><path d="M2477 99 c7 -7 15 -10 18 -7 3 3 -2 9 -12 12 -14 6 -15 5 -6 -5z"></path><path d="M2588 98 c5 -5 16 -8 23 -6 8 3 3 7 -10 11 -17 4 -21 3 -13 -5z"></path><path d="M2365 60 c-10 -11 -16 -22 -14 -24 2 -2 12 7 22 20 22 29 17 32 -8 4z"></path><path d="M2387 35 c-9 -19 -15 -35 -12 -35 7 0 37 61 33 66 -3 2 -12 -12 -21 -31z"></path></g></svg>